<svg width="55" height="72" viewBox="0 0 55 72" fill="none" xmlns="http://www.w3.org/2000/svg">
<path d="M54.6218 68.2259V71.9998H1.25798e-06V67.9777C-0.0018269 64.3339 1.98904 60.9809 5.18902 59.2383L16.2623 53.1927C17.7191 52.4029 18.625 50.8773 18.6209 49.2202V46.3582C18.6223 46.0893 18.535 45.8274 18.3724 45.6133C16.1827 42.7502 14.5797 39.483 13.6554 35.9991V32.2749L12.4139 29.7921V22.3436L13.6554 19.8608V18.6194C13.6554 18.6194 12.1781 7.44678 27.3107 7.44678C42.4434 7.44678 40.9661 18.6194 40.9661 18.6194V19.8608L42.2076 21.1023V29.7921L40.9661 32.2749V35.9991C40.0418 39.483 38.4388 42.7501 36.249 45.6131C36.0865 45.8273 35.9991 46.0892 36.0005 46.358V49.3443C35.9966 51.0542 36.9574 52.62 38.4833 53.3912L49.1221 59.3128C52.4925 61.0058 54.6202 64.4543 54.6218 68.2259Z" fill="#D1D1D1"/>
<path d="M45.9324 22.3453C45.2469 22.3453 44.691 21.7896 44.691 21.1039V19.8624C44.691 10.2639 36.9099 2.48278 27.3114 2.48278C17.7128 2.48278 9.93174 10.264 9.93174 19.8624V21.1039C9.93174 21.7894 9.37598 22.3453 8.69028 22.3453C8.00472 22.3453 7.44882 21.7896 7.44882 21.1039V19.8624C7.44896 8.89273 16.3417 0 27.3114 0C38.281 0 47.1737 8.89273 47.1737 19.8624V21.1039C47.1737 21.4331 47.043 21.7489 46.8101 21.9817C46.5773 22.2145 46.2616 22.3453 45.9324 22.3453Z" fill="#B5B4B8"/>
<path d="M23.5869 40.9657H12.4144C9.67324 40.9626 7.45189 38.7412 7.44879 36.0001V32.2759C7.44879 31.5903 8.00455 31.0344 8.69025 31.0344C9.37581 31.0344 9.93171 31.5902 9.93171 32.2759V36.0001C9.93312 37.3708 11.0439 38.4815 12.4145 38.4829H23.5871C24.2726 38.4829 24.8285 39.0387 24.8285 39.7244C24.8285 40.4101 24.2726 40.9657 23.5869 40.9657Z" fill="#D1D1D1"/>
<path d="M26.0691 37.2419H29.7933C31.1646 37.2419 32.2761 38.3535 32.2761 39.7247C32.2761 41.096 31.1646 42.2075 29.7933 42.2075H26.0691C24.6978 42.2075 23.5863 41.0958 23.5863 39.7247C23.5863 38.3535 24.698 37.2419 26.0691 37.2419Z" fill="white"/>
<path d="M8.69027 19.8625H13.6558V32.2766H8.69027C7.31901 32.2766 6.20749 31.1651 6.20749 29.7938V22.3453C6.20749 20.9742 7.31915 19.8625 8.69027 19.8625Z" fill="#EE0033"/>
<path d="M45.9322 32.2756H40.9666V19.8616H45.9322C47.3034 19.8616 48.415 20.9731 48.415 22.3444V29.7928C48.415 31.1641 47.3033 32.2756 45.9322 32.2756Z" fill="#EE0033"/>
</svg>
