<svg width="24" height="24" viewBox="0 0 24 24" fill="none" xmlns="http://www.w3.org/2000/svg">
<path d="M10.8999 7H17.9999L18.9999 11L22.9999 13V19H17.8289" stroke="#EE0033" stroke-width="2" stroke-miterlimit="10"/>
<path d="M9 10V19H1V6" stroke="#EE0033" stroke-width="2" stroke-miterlimit="10"/>
<path d="M15 23C16.6569 23 18 21.6569 18 20C18 18.3431 16.6569 17 15 17C13.3431 17 12 18.3431 12 20C12 21.6569 13.3431 23 15 23Z" stroke="#EE0033" stroke-width="2" stroke-miterlimit="10" stroke-linecap="square"/>
<path d="M6 11C8.76142 11 11 8.76142 11 6C11 3.23858 8.76142 1 6 1C3.23858 1 1 3.23858 1 6C1 8.76142 3.23858 11 6 11Z" stroke="#EE0033" stroke-width="2" stroke-miterlimit="10" stroke-linecap="square"/>
<path d="M6 4V6H8" stroke="#EE0033" stroke-width="2" stroke-miterlimit="10" stroke-linecap="square"/>
</svg>
